<svg xmlns="http://www.w3.org/2000/svg" fill="none" viewBox="0 0 50 50">
    <path fill="currentColor" d="M42.6023 42.603h-7.4084V31.0009c0-2.7666-.0494-6.3281-3.8531-6.3281-3.8586 0-4.449 3.0144-4.449 6.1267v11.8028h-7.4082V18.7437h7.1119v3.2605h.0996c.7118-1.217 1.7402-2.2181 2.976-2.8968 1.2357-.6787 2.6323-1.0096 4.0412-.9573 7.5088 0 8.8932 4.9391 8.8932 11.3645l-.0032 13.0884ZM11.1242 15.4825c-2.3744.0004-4.29959-1.9242-4.29998-4.2986-.00039-2.3744 1.92402-4.2996 4.29848-4.29999 2.3744-.00059 4.2996 1.92402 4.3 4.29839.0002 1.1403-.4526 2.2339-1.2587 3.0403-.8061.8065-1.8995 1.2597-3.0398 1.2599Zm3.7043 27.1207H7.4123V18.7437h7.416l.0002 23.8595ZM46.2957.00363904H3.68965C1.67598-.0190172.0246094 1.59407 0 3.60774V46.3915c.0238281 2.0147 1.675 3.6293 3.68945 3.6082H46.2957c2.0187.025 3.6764-1.5896 3.7043-3.6082V3.60442c-.0287-2.01758-1.6865-3.6304684-3.7043-3.60410127"/>
</svg>
