<svg width="180" height="40" viewBox="0 0 180 40" fill="none" xmlns="http://www.w3.org/2000/svg" xmlns:xlink="http://www.w3.org/1999/xlink">
<symbol id="logo-symbol-wordmark">
<path d="M11.2342 31.9969C10.1245 31.9963 9.03404 31.7079 8.06982 31.1601L3.25132 28.4199C2.33484 27.8959 1.56192 27.1549 1.00087 26.2623L0.994878 26.2533C0.958918 26.1936 0.925957 26.1458 0.898988 26.1009C0.86902 26.0442 0.836057 25.9933 0.812084 25.9425L0.806092 25.9306C0.299831 25.0054 0.0321014 23.9693 0.0269787 22.9154L9.5756e-06 17.384C-0.00192657 16.2653 0.289779 15.1655 0.846129 14.1941C1.40248 13.2227 2.2041 12.4134 3.1713 11.8466L7.96285 9.05552C8.9326 8.49392 10.0328 8.19515 11.1542 8.1889H11.1842C12.2957 8.18985 13.3881 8.47814 14.3546 9.02564L18.409 11.3326C18.9366 11.6317 19.3999 12.0317 19.7723 12.5096C20.1447 12.9875 20.419 13.534 20.5793 14.1178C20.7396 14.7015 20.7829 15.3111 20.7067 15.9116C20.6304 16.512 20.4362 17.0916 20.135 17.6171C19.7308 18.3189 19.1504 18.9039 18.4509 19.3144L10.3212 24.0479C10.1919 24.1251 10.0782 24.2254 9.98555 24.3438C9.89355 24.4635 9.82727 24.6008 9.79076 24.7472C9.75394 24.8927 9.74681 25.0441 9.7698 25.1925C9.79201 25.3412 9.84289 25.4843 9.91961 25.6138C9.99549 25.7406 10.0957 25.8513 10.2144 25.9395C10.3332 26.0277 10.4683 26.0917 10.6118 26.1278C10.9027 26.1984 11.2096 26.1545 11.4689 26.0053L16.3173 23.1724C16.6556 22.9715 17.0304 22.8395 17.4201 22.7839C17.5591 22.7649 17.6993 22.7549 17.8396 22.754C18.0925 22.753 18.3443 22.7852 18.5888 22.8496C19.1615 22.997 19.6771 23.3114 20.0694 23.7528C20.4618 24.1941 20.7132 24.7423 20.7912 25.3269C20.8957 26.112 20.6834 26.9063 20.2009 27.5353C19.9622 27.846 19.6637 28.1061 19.3229 28.3003L14.4616 31.1264C13.4922 31.6893 12.3919 31.9891 11.2702 31.996L11.2342 31.9969ZM6.06511 17.0493C5.87112 17.1634 5.71579 17.3329 5.61914 17.5357C5.52249 17.7386 5.48889 17.9658 5.52273 18.1878C5.54494 18.3347 5.59584 18.4759 5.67254 18.6032C5.82541 18.8559 6.07195 19.0385 6.35877 19.1112C6.44912 19.1326 6.54161 19.1437 6.63445 19.1441C6.83454 19.1454 7.03126 19.0927 7.20382 18.9917L13.1071 15.5491C13.2363 15.472 13.3501 15.3717 13.4427 15.2533C13.5347 15.1336 13.601 14.9963 13.6375 14.8499C13.6744 14.7044 13.6815 14.5529 13.6585 14.4046C13.6363 14.2558 13.5854 14.1128 13.5086 13.9833C13.4322 13.8567 13.3314 13.7463 13.2121 13.6587C13.0928 13.571 12.9573 13.5076 12.8134 13.4723C12.7221 13.4507 12.6286 13.4396 12.5347 13.4394C12.3318 13.4406 12.1325 13.4941 11.9564 13.5948L11.8515 13.6575L6.06511 17.0493Z" fill="#121212"/>
<path d="M82.2401 31.9969C81.1304 31.9963 80.04 31.7079 79.0759 31.1601L74.2573 28.4199C73.3409 27.8959 72.5678 27.1549 72.0069 26.2623L72.0008 26.2533C71.9647 26.1936 71.932 26.1458 71.9048 26.1009C71.875 26.0442 71.842 25.9933 71.8179 25.9425L71.8119 25.9306C71.3058 25.0054 71.0379 23.9693 71.0329 22.9154L71.0059 17.384C71.004 16.2654 71.2955 15.1657 71.8516 14.1943C72.4078 13.2228 73.2092 12.4135 74.1764 11.8466L78.9678 9.05552C79.9377 8.49392 81.0378 8.19515 82.1593 8.1889H82.1893C83.3007 8.18985 84.3931 8.47814 85.3596 9.02564L89.4141 11.3326C89.9416 11.6317 90.4049 12.0317 90.7774 12.5096C91.1497 12.9875 91.4241 13.534 91.5844 14.1178C91.7447 14.7015 91.788 15.3111 91.7117 15.9116C91.6354 16.512 91.4412 17.0916 91.1401 17.6171C90.7358 18.3189 90.1553 18.9039 89.4559 19.3144L81.3263 24.0479C81.1971 24.1251 81.0833 24.2254 80.9906 24.3438C80.8987 24.4635 80.8322 24.6008 80.7959 24.7472C80.7591 24.8927 80.7519 25.0441 80.7747 25.1925C80.7971 25.3412 80.8479 25.4843 80.9247 25.6138C81.0005 25.7406 81.1008 25.8513 81.2195 25.9395C81.3384 26.0277 81.4734 26.0917 81.6168 26.1278C81.9078 26.1984 82.2146 26.1545 82.4738 26.0053L87.3193 23.1753C87.6577 22.9745 88.0324 22.8425 88.4221 22.7869C88.5612 22.7679 88.7012 22.7579 88.8418 22.757C89.0945 22.756 89.3464 22.7881 89.5907 22.8526C90.1635 22.9999 90.679 23.3144 91.0715 23.7558C91.4638 24.1971 91.7153 24.7453 91.7933 25.3299C91.8977 26.115 91.6855 26.9093 91.2029 27.5383C90.9642 27.849 90.6658 28.1091 90.325 28.3033L85.4645 31.1303C84.4951 31.6932 83.3948 31.993 82.2731 31.9999L82.2401 31.9969ZM77.0711 17.0493C76.8115 17.2033 76.624 17.4537 76.5496 17.7456C76.5128 17.8901 76.5056 18.0405 76.5287 18.1878C76.5508 18.3347 76.6018 18.4759 76.6784 18.6032C76.8314 18.8559 77.0779 19.0385 77.3648 19.1112C77.455 19.1326 77.5477 19.1437 77.6403 19.1441C77.8405 19.1454 78.0372 19.0927 78.2097 18.9917L84.113 15.5491C84.2422 15.472 84.356 15.3717 84.4487 15.2533C84.5406 15.1336 84.6071 14.9963 84.6434 14.8499C84.6817 14.7046 84.6889 14.5529 84.6643 14.4046C84.6422 14.2558 84.5914 14.1128 84.5146 13.9833C84.4381 13.8567 84.3373 13.7463 84.2181 13.6587C84.0988 13.571 83.9633 13.5076 83.8194 13.4723C83.7281 13.4507 83.6345 13.4396 83.5407 13.4394C83.3378 13.4406 83.1385 13.4941 82.9624 13.5948L82.8574 13.6575L77.0711 17.0493Z" fill="#121212"/>
<path d="M65.9977 9.17235C64.2717 9.17235 62.8753 10.6277 62.8753 12.3459V20.7372H62.8722V21.1585C62.8725 21.6751 62.7362 22.1825 62.4775 22.63C62.2188 23.0774 61.8463 23.4491 61.3979 23.7075L59.3453 24.8879C58.896 25.1448 58.3872 25.28 57.8695 25.28C57.3516 25.28 56.8429 25.1448 56.3935 24.8879L54.3409 23.7075C53.8921 23.4496 53.5193 23.078 53.2606 22.6305C53.0016 22.1829 52.8659 21.6752 52.8666 21.1585L52.8697 12.3489C52.8697 10.6277 51.4703 9.17235 49.7471 9.17235C48.919 9.17235 48.1248 9.5004 47.5393 10.0844C46.9537 10.6683 46.6248 11.4603 46.6248 12.2862V22.8649C46.6245 23.9451 46.9092 25.0065 47.4505 25.9423C47.9917 26.8781 48.7703 27.6554 49.7081 28.196L54.9553 31.2142C55.8431 31.7251 56.8503 31.9941 57.8753 31.9941C58.9005 31.9941 59.9077 31.7251 60.7955 31.2142L66.0427 28.196C66.9806 27.6554 67.7591 26.8781 68.3004 25.9423C68.8416 25.0065 69.1263 23.9451 69.1261 22.8649V12.2862C69.1237 11.46 68.7933 10.6685 68.2068 10.0849C67.6205 9.50126 66.8261 9.17314 65.9977 9.17235Z" fill="#121212"/>
<path d="M115.849 24.4134C115.797 24.0201 115.666 23.6411 115.465 23.2987C115.265 22.956 114.999 22.6562 114.682 22.4166C114.366 22.1771 114.004 22.0026 113.619 21.9032C113.372 21.8387 113.117 21.8066 112.861 21.8076C112.719 21.8085 112.577 21.8185 112.436 21.8374C112.041 21.8927 111.661 22.0257 111.318 22.2289L106.412 25.0917L106.416 25.0977C105.967 25.3515 105.46 25.4844 104.945 25.4834C104.429 25.4823 103.923 25.3473 103.476 25.0917L101.423 23.9113C100.974 23.6533 100.602 23.2818 100.343 22.8343C100.084 22.3867 99.9479 21.879 99.9489 21.3623L99.9518 12.2838C99.952 11.4576 99.6233 10.6652 99.0377 10.0807C98.4522 9.49626 97.6578 9.16758 96.8294 9.16695C96.0013 9.16695 95.2071 9.49501 94.6216 10.079C94.036 10.6629 93.707 11.4549 93.707 12.2808V22.8594C93.7066 23.9398 93.9915 25.0011 94.5327 25.9369C95.074 26.8727 95.8526 27.6499 96.7904 28.1906L102.037 31.2088C102.925 31.7197 103.933 31.9887 104.958 31.9887C105.983 31.9887 106.99 31.7197 107.878 31.2088L114.362 27.4137C114.708 27.217 115.011 26.9538 115.253 26.6393C115.495 26.3247 115.672 25.9653 115.774 25.5818C115.878 25.2015 115.904 24.8039 115.849 24.4134Z" fill="#121212"/>
<path d="M44.234 26.2343C44.1676 26.1706 44.124 26.087 44.1093 25.9963C44.0947 25.9056 44.1101 25.8126 44.1531 25.7314C44.6073 24.8598 44.8446 23.8918 44.8443 22.9095V17.0882C44.8426 16.013 44.5577 14.9572 44.0181 14.0263C43.4786 13.0955 42.7031 12.3222 41.7699 11.784L36.547 8.77772C35.6632 8.26825 34.6606 8 33.6402 8C32.6196 8 31.617 8.26825 30.7335 8.77772L25.5135 11.784C24.5797 12.3216 23.8043 13.0947 23.2652 14.0258C22.726 14.9569 22.4421 16.0131 22.4419 17.0882V22.9086C22.4411 23.984 22.7247 25.0405 23.2639 25.9718C23.8032 26.903 24.579 27.676 25.5135 28.2129L30.7364 31.2162C31.6201 31.7256 32.6225 31.9939 33.6431 31.9939C34.6638 31.9939 35.6664 31.7256 36.5499 31.2162L38.5681 30.0558C38.6379 30.0157 38.7178 29.9962 38.7984 29.9996C38.8788 30.0031 38.9567 30.0293 39.0229 30.0752L40.3714 31.0106C41.7999 31.9689 43.7293 31.6013 44.6812 30.1903C45.5322 28.9286 45.3124 27.2584 44.234 26.2343ZM30.1311 23.4713C29.6844 23.2145 29.3133 22.8447 29.0556 22.3993C28.7978 21.9538 28.6623 21.4485 28.6628 20.9342V18.5794C28.6631 18.0653 28.7988 17.5602 29.0565 17.1149C29.3141 16.6696 29.6849 16.2997 30.1311 16.0423L32.1748 14.8679C32.6213 14.6109 33.1276 14.4756 33.6431 14.4756C34.1586 14.4756 34.665 14.6109 35.1114 14.8679L37.1551 16.0423C37.602 16.2992 37.9729 16.669 38.2306 17.1144C38.4884 17.5598 38.6239 18.0651 38.6234 18.5794V21.1374C38.6234 21.309 38.6063 21.4802 38.5726 21.6484C38.5606 21.7062 38.5344 21.7601 38.4961 21.8051C38.4578 21.8501 38.4087 21.8847 38.3536 21.9059C38.2983 21.927 38.2386 21.9339 38.1801 21.926C38.1214 21.9181 38.0658 21.8956 38.0181 21.8606C37.9905 21.839 37.9613 21.819 37.9313 21.8008L37.2495 21.3421L35.4546 20.096C34.0265 19.1379 32.0966 19.5055 31.1448 20.9166C30.8257 21.3887 30.6456 21.9406 30.6252 22.5097C30.6151 22.7132 30.6249 22.9172 30.6553 23.1187C30.6647 23.1838 30.6555 23.2503 30.6288 23.3104C30.6018 23.3706 30.5588 23.422 30.5041 23.4588C30.4493 23.4956 30.3852 23.5163 30.3193 23.5185C30.2534 23.5208 30.1881 23.5044 30.1311 23.4713Z" fill="#121212"/>
<line x1="132.5" y1="8.4584" x2="132.5" y2="31.5416" stroke="#121212" stroke-linecap="round"/>
<path d="M171.171 13.3134C170.824 10.7347 168.576 8.70249 165.912 8.3087C165.463 8.24216 163.759 8 159.814 8H159.785C155.839 8 154.992 8.24216 154.543 8.3087C151.953 8.69158 149.587 10.5176 149.013 13.1268C148.737 14.4118 148.708 15.8364 148.759 17.1432C148.832 19.0173 148.846 20.888 149.017 22.7544C149.134 23.9942 149.34 25.224 149.631 26.4348C150.176 28.671 152.385 30.5319 154.548 31.2911C156.864 32.0829 159.355 32.2143 161.742 31.6707C162.005 31.6096 162.264 31.5388 162.52 31.458C163.1 31.2737 163.78 31.0675 164.28 30.7054C164.287 30.7003 164.292 30.6937 164.296 30.6862C164.3 30.6786 164.303 30.6703 164.303 30.6617V28.8532C164.303 28.8452 164.301 28.8374 164.297 28.8302C164.294 28.8231 164.289 28.8168 164.282 28.8119C164.276 28.807 164.269 28.8035 164.261 28.8018C164.253 28.8001 164.245 28.8001 164.237 28.8019C162.708 29.1671 161.141 29.3502 159.569 29.3473C156.863 29.3473 156.135 28.0634 155.927 27.5289C155.76 27.067 155.653 26.5851 155.611 26.0956C155.61 26.0874 155.612 26.0791 155.615 26.0716C155.618 26.0641 155.624 26.0575 155.63 26.0522C155.636 26.047 155.644 26.0434 155.652 26.0416C155.66 26.0399 155.668 26.0401 155.676 26.0421C157.18 26.4049 158.721 26.5879 160.268 26.5875C160.64 26.5875 161.011 26.5875 161.383 26.5777C162.939 26.5341 164.579 26.4544 166.109 26.1556C166.148 26.1479 166.186 26.1414 166.219 26.1316C168.633 25.668 170.931 24.2128 171.164 20.528C171.173 20.383 171.195 19.0085 171.195 18.858C171.196 18.3464 171.359 15.2288 171.171 13.3134Z" fill="url(#paint0_linear_1890_66478)"/>
<path d="M167.346 16.2106V22.617H164.807V16.3993C164.807 15.0903 164.261 14.4227 163.152 14.4227C161.932 14.4227 161.321 15.2125 161.321 16.7724V20.1757H158.798V16.7724C158.798 15.2125 158.185 14.4227 156.966 14.4227C155.863 14.4227 155.312 15.0903 155.312 16.3993V22.617H152.774V16.2106C152.774 14.9016 153.108 13.8617 153.777 13.0908C154.466 12.3218 155.371 11.927 156.493 11.927C157.793 11.927 158.775 12.4265 159.429 13.4246L160.061 14.4849L160.694 13.4246C161.348 12.4265 162.33 11.927 163.627 11.927C164.749 11.927 165.653 12.3218 166.345 13.0908C167.013 13.8609 167.346 14.9009 167.346 16.2106Z" fill="white"/>
<defs>
<linearGradient id="paint0_linear_1890_66478" x1="160" y1="8" x2="160" y2="32" gradientUnits="userSpaceOnUse">
<stop stop-color="#6364FF"/>
<stop offset="1" stop-color="#563ACC"/>
</linearGradient>
</defs></symbol><use xlink:href="#logo-symbol-wordmark"/>
</svg>
